<?xml version="1.0" standalone="no"?><!DOCTYPE svg PUBLIC "-//W3C//DTD SVG 1.1//EN" "http://www.w3.org/Graphics/SVG/1.1/DTD/svg11.dtd"><svg t="1719048505823" class="icon" viewBox="0 0 1229 1024" version="1.1" xmlns="http://www.w3.org/2000/svg" p-id="3775" xmlns:xlink="http://www.w3.org/1999/xlink" width="240.0390625" height="200"><path d="M968.02816 299.52c156.16 23.04 268.8 161.28 256 314.88-7.68 79.36-46.08 151.04-102.4 199.68l-7.68-15.36c-15.36-23.04-33.28-46.08-53.76-64 15.36-12.8 28.16-28.16 38.4-46.08 35.84-61.44 35.84-135.68 0-197.12-35.84-61.44-102.4-99.84-174.08-97.28-12.8 0-25.6-5.12-35.84-15.36-12.8-7.68-17.92-20.48-17.92-33.28 0-135.68-112.64-245.76-253.44-245.76s-253.44 110.08-253.44 245.76v10.24c120.32 33.28 202.24 138.24 202.24 258.56 0 17.92-10.24 33.28-25.6 43.52-15.36 7.68-35.84 7.68-51.2 0-15.36-7.68-25.6-25.6-25.6-43.52 0-94.72-79.36-171.52-176.64-171.52-97.28 0-176.64 76.8-176.64 171.52s79.36 171.52 176.64 171.52h345.6c-2.56 2.56-5.12 7.68-7.68 10.24-17.92 25.6-30.72 56.32-38.4 87.04H284.50816C138.58816 890.88 8.02816 775.68 0.34816 627.2s112.64-276.48 263.68-281.6c0-181.76 143.36-332.8 330.24-343.04 186.88-12.8 350.72 117.76 373.76 296.96z" fill="#96AFFA" p-id="3776"></path><path d="M993.62816 657.92c0-69.12-53.76-122.88-120.32-122.88s-120.32 56.32-120.32 122.88c0 33.28 12.8 64 35.84 87.04-84.48 35.84-138.24 120.32-138.24 215.04 0 7.68 2.56 25.6 5.12 53.76h437.76c2.56-28.16 5.12-46.08 5.12-53.76 0-92.16-53.76-176.64-138.24-215.04 20.48-23.04 33.28-53.76 33.28-87.04z" fill="#F8AE8E" p-id="3777"></path></svg>